<mxfile host="app.diagrams.net" modified="2024-02-07T08:35:43.704Z" agent="Mozilla/5.0 (Macintosh; Intel Mac OS X 10_15_7) AppleWebKit/537.36 (KHTML, like Gecko) Chrome/121.0.0.0 Safari/537.36" etag="AFSjv54gkKq6oBaYeYfP" version="23.1.1" type="github">
  <diagram name="Page-1" id="2cc2dc42-3aac-f2a9-1cec-7a8b7cbee084">
    <mxGraphModel dx="733" dy="403" grid="1" gridSize="10" guides="1" tooltips="1" connect="1" arrows="1" fold="1" page="1" pageScale="1" pageWidth="1100" pageHeight="850" background="none" math="0" shadow="0">
      <root>
        <mxCell id="0" />
        <mxCell id="1" parent="0" />
        <mxCell id="7026571954dc6520-1" value="" style="strokeWidth=1;shadow=0;dashed=0;align=center;html=1;shape=mxgraph.mockup.containers.browserWindow;rSize=0;strokeColor=#666666;mainText=,;recursiveResize=0;rounded=0;labelBackgroundColor=none;fontFamily=Verdana;fontSize=12" parent="1" vertex="1">
          <mxGeometry x="25" y="15" width="1050" height="820" as="geometry" />
        </mxCell>
        <mxCell id="7026571954dc6520-2" value="Page 1" style="strokeWidth=1;shadow=0;dashed=0;align=center;html=1;shape=mxgraph.mockup.containers.anchor;fontSize=17;fontColor=#666666;align=left;" parent="7026571954dc6520-1" vertex="1">
          <mxGeometry x="60" y="12" width="110" height="26" as="geometry" />
        </mxCell>
        <mxCell id="7026571954dc6520-3" value="https://www.default.com" style="strokeWidth=1;shadow=0;dashed=0;align=center;html=1;shape=mxgraph.mockup.containers.anchor;rSize=0;fontSize=17;fontColor=#666666;align=left;" parent="7026571954dc6520-1" vertex="1">
          <mxGeometry x="130" y="60" width="250" height="26" as="geometry" />
        </mxCell>
        <mxCell id="7026571954dc6520-4" value="Good morning/afternoon {name}" style="text;html=1;points=[];align=left;verticalAlign=top;spacingTop=-4;fontSize=30;fontFamily=Verdana" parent="7026571954dc6520-1" vertex="1">
          <mxGeometry x="80" y="140" width="340" height="50" as="geometry" />
        </mxCell>
        <mxCell id="7026571954dc6520-11" value="Welcome (/back) to your knowledge base" style="text;html=1;points=[];align=left;verticalAlign=top;spacingTop=-4;fontSize=12;fontFamily=Verdana;whiteSpace=wrap;" parent="7026571954dc6520-1" vertex="1">
          <mxGeometry x="80" y="190" width="280" height="40" as="geometry" />
        </mxCell>
        <mxCell id="7026571954dc6520-12" value="Search" style="text;html=1;points=[];align=left;verticalAlign=top;spacingTop=-4;fontSize=15;fontFamily=Verdana" parent="7026571954dc6520-1" vertex="1">
          <mxGeometry x="800" y="170" width="170" height="30" as="geometry" />
        </mxCell>
        <mxCell id="7026571954dc6520-14" value="Search" style="strokeWidth=1;shadow=0;dashed=0;align=center;html=1;shape=mxgraph.mockup.forms.searchBox;strokeColor=#999999;mainText=;strokeColor2=#008cff;fontColor=#666666;fontSize=17;align=left;spacingLeft=3;rounded=0;labelBackgroundColor=none;" parent="7026571954dc6520-1" vertex="1">
          <mxGeometry x="800" y="200" width="220" height="30" as="geometry" />
        </mxCell>
        <mxCell id="7026571954dc6520-15" value="" style="verticalLabelPosition=bottom;shadow=0;dashed=0;align=center;html=1;verticalAlign=top;strokeWidth=1;shape=mxgraph.mockup.markup.line;strokeColor=#999999;rounded=0;labelBackgroundColor=none;fillColor=#ffffff;fontFamily=Verdana;fontSize=12;fontColor=#000000;" parent="7026571954dc6520-1" vertex="1">
          <mxGeometry y="245" width="1050" height="20" as="geometry" />
        </mxCell>
        <mxCell id="7026571954dc6520-21" value="" style="verticalLabelPosition=bottom;shadow=0;dashed=0;align=center;html=1;verticalAlign=top;strokeWidth=1;shape=mxgraph.mockup.markup.line;strokeColor=#999999;rounded=0;labelBackgroundColor=none;fillColor=#ffffff;fontFamily=Verdana;fontSize=12;fontColor=#000000;" parent="7026571954dc6520-1" vertex="1">
          <mxGeometry x="-5" y="725" width="1050" height="20" as="geometry" />
        </mxCell>
        <mxCell id="7026571954dc6520-31" value="Footer icons" style="text;html=1;points=[];align=center;verticalAlign=top;spacingTop=-4;fontSize=15;fontFamily=Verdana" parent="7026571954dc6520-1" vertex="1">
          <mxGeometry x="440" y="745" width="170" height="30" as="geometry" />
        </mxCell>
        <mxCell id="7026571954dc6520-34" value="&lt;div style=&quot;&quot;&gt;&lt;span style=&quot;background-color: initial;&quot;&gt;Footer text&lt;/span&gt;&lt;/div&gt;" style="text;html=1;points=[];align=center;verticalAlign=top;spacingTop=-4;fontSize=12;fontFamily=Verdana;whiteSpace=wrap;" parent="7026571954dc6520-1" vertex="1">
          <mxGeometry x="265" y="780" width="510" height="30" as="geometry" />
        </mxCell>
        <mxCell id="zGA6LBWknvbC6V1FzWVg-1" value="" style="shape=hexagon;perimeter=hexagonPerimeter2;whiteSpace=wrap;html=1;fixedSize=1;" vertex="1" parent="7026571954dc6520-1">
          <mxGeometry x="15" y="275" width="65" height="55" as="geometry" />
        </mxCell>
        <mxCell id="zGA6LBWknvbC6V1FzWVg-5" value="" style="shape=hexagon;perimeter=hexagonPerimeter2;whiteSpace=wrap;html=1;fixedSize=1;" vertex="1" parent="7026571954dc6520-1">
          <mxGeometry x="15" y="505" width="65" height="55" as="geometry" />
        </mxCell>
        <mxCell id="zGA6LBWknvbC6V1FzWVg-4" value="" style="shape=hexagon;perimeter=hexagonPerimeter2;whiteSpace=wrap;html=1;fixedSize=1;" vertex="1" parent="7026571954dc6520-1">
          <mxGeometry x="15" y="345" width="65" height="55" as="geometry" />
        </mxCell>
        <mxCell id="zGA6LBWknvbC6V1FzWVg-3" value="" style="shape=hexagon;perimeter=hexagonPerimeter2;whiteSpace=wrap;html=1;fixedSize=1;" vertex="1" parent="7026571954dc6520-1">
          <mxGeometry x="15" y="425" width="65" height="55" as="geometry" />
        </mxCell>
        <mxCell id="zGA6LBWknvbC6V1FzWVg-2" value="" style="shape=hexagon;perimeter=hexagonPerimeter2;whiteSpace=wrap;html=1;fixedSize=1;size=19.999999999999773;" vertex="1" parent="7026571954dc6520-1">
          <mxGeometry x="15" y="585" width="65" height="55" as="geometry" />
        </mxCell>
        <mxCell id="zGA6LBWknvbC6V1FzWVg-7" value="" style="shape=hexagon;perimeter=hexagonPerimeter2;whiteSpace=wrap;html=1;fixedSize=1;" vertex="1" parent="7026571954dc6520-1">
          <mxGeometry x="15" y="655" width="65" height="55" as="geometry" />
        </mxCell>
        <mxCell id="zGA6LBWknvbC6V1FzWVg-11" value="" style="endArrow=none;dashed=1;html=1;dashPattern=1 3;strokeWidth=2;rounded=0;exitX=0.101;exitY=0.533;exitDx=0;exitDy=0;exitPerimeter=0;movable=1;resizable=1;rotatable=1;deletable=1;editable=1;locked=0;connectable=1;entryX=0.097;entryY=0.7;entryDx=0;entryDy=0;entryPerimeter=0;" edge="1" parent="7026571954dc6520-1" source="7026571954dc6520-21" target="7026571954dc6520-15">
          <mxGeometry width="50" height="50" relative="1" as="geometry">
            <mxPoint x="365" y="435" as="sourcePoint" />
            <mxPoint x="101" y="265" as="targetPoint" />
          </mxGeometry>
        </mxCell>
        <mxCell id="zGA6LBWknvbC6V1FzWVg-12" value="Welcome" style="shape=hexagon;perimeter=hexagonPerimeter2;whiteSpace=wrap;html=1;fixedSize=1;" vertex="1" parent="7026571954dc6520-1">
          <mxGeometry x="460" y="440" width="98" height="80" as="geometry" />
        </mxCell>
        <mxCell id="zGA6LBWknvbC6V1FzWVg-13" value="" style="shape=hexagon;perimeter=hexagonPerimeter2;whiteSpace=wrap;html=1;fixedSize=1;" vertex="1" parent="7026571954dc6520-1">
          <mxGeometry x="555" y="395" width="98" height="80" as="geometry" />
        </mxCell>
        <mxCell id="zGA6LBWknvbC6V1FzWVg-14" value="" style="shape=hexagon;perimeter=hexagonPerimeter2;whiteSpace=wrap;html=1;fixedSize=1;" vertex="1" parent="7026571954dc6520-1">
          <mxGeometry x="460" y="345" width="98" height="80" as="geometry" />
        </mxCell>
        <mxCell id="zGA6LBWknvbC6V1FzWVg-18" value="" style="shape=hexagon;perimeter=hexagonPerimeter2;whiteSpace=wrap;html=1;fixedSize=1;" vertex="1" parent="7026571954dc6520-1">
          <mxGeometry x="365" y="395" width="98" height="80" as="geometry" />
        </mxCell>
        <mxCell id="zGA6LBWknvbC6V1FzWVg-17" value="" style="shape=hexagon;perimeter=hexagonPerimeter2;whiteSpace=wrap;html=1;fixedSize=1;" vertex="1" parent="7026571954dc6520-1">
          <mxGeometry x="365" y="492.5" width="98" height="80" as="geometry" />
        </mxCell>
        <mxCell id="zGA6LBWknvbC6V1FzWVg-16" value="" style="shape=hexagon;perimeter=hexagonPerimeter2;whiteSpace=wrap;html=1;fixedSize=1;" vertex="1" parent="7026571954dc6520-1">
          <mxGeometry x="460" y="535" width="98" height="80" as="geometry" />
        </mxCell>
        <mxCell id="zGA6LBWknvbC6V1FzWVg-15" value="" style="shape=hexagon;perimeter=hexagonPerimeter2;whiteSpace=wrap;html=1;fixedSize=1;" vertex="1" parent="7026571954dc6520-1">
          <mxGeometry x="558" y="492.5" width="98" height="80" as="geometry" />
        </mxCell>
        <mxCell id="zGA6LBWknvbC6V1FzWVg-21" value="" style="shape=hexagon;perimeter=hexagonPerimeter2;whiteSpace=wrap;html=1;fixedSize=1;" vertex="1" parent="7026571954dc6520-1">
          <mxGeometry x="555" y="295" width="98" height="80" as="geometry" />
        </mxCell>
        <mxCell id="zGA6LBWknvbC6V1FzWVg-20" value="" style="shape=hexagon;perimeter=hexagonPerimeter2;whiteSpace=wrap;html=1;fixedSize=1;" vertex="1" parent="7026571954dc6520-1">
          <mxGeometry x="365" y="295" width="98" height="80" as="geometry" />
        </mxCell>
        <mxCell id="zGA6LBWknvbC6V1FzWVg-19" value="" style="shape=hexagon;perimeter=hexagonPerimeter2;whiteSpace=wrap;html=1;fixedSize=1;" vertex="1" parent="7026571954dc6520-1">
          <mxGeometry x="275" y="345" width="98" height="80" as="geometry" />
        </mxCell>
        <mxCell id="zGA6LBWknvbC6V1FzWVg-22" value="" style="shape=hexagon;perimeter=hexagonPerimeter2;whiteSpace=wrap;html=1;fixedSize=1;" vertex="1" parent="7026571954dc6520-1">
          <mxGeometry x="653" y="440" width="98" height="80" as="geometry" />
        </mxCell>
        <mxCell id="zGA6LBWknvbC6V1FzWVg-24" value="" style="dashed=0;outlineConnect=0;html=1;align=center;labelPosition=center;verticalLabelPosition=bottom;verticalAlign=top;shape=mxgraph.webicons.linkedin;fillColor=#0095DB;gradientColor=#006391;aspect=fixed;" vertex="1" parent="7026571954dc6520-1">
          <mxGeometry x="39.400000000000006" y="295" width="16.2" height="15" as="geometry" />
        </mxCell>
        <mxCell id="zGA6LBWknvbC6V1FzWVg-26" value="" style="dashed=0;outlineConnect=0;html=1;align=center;labelPosition=center;verticalLabelPosition=bottom;verticalAlign=top;shape=mxgraph.webicons.linkedin;fillColor=#0095DB;gradientColor=#006391;aspect=fixed;" vertex="1" parent="7026571954dc6520-1">
          <mxGeometry x="587.95" y="420.14" width="32.1" height="29.72" as="geometry" />
        </mxCell>
        <mxCell id="zGA6LBWknvbC6V1FzWVg-27" value="" style="dashed=0;outlineConnect=0;html=1;align=center;labelPosition=center;verticalLabelPosition=bottom;verticalAlign=top;shape=mxgraph.weblogos.instagram;fillColor=#6FC0E4;gradientColor=#1E305B;movable=1;resizable=1;rotatable=1;deletable=1;editable=1;locked=0;connectable=1;aspect=fixed;" vertex="1" parent="7026571954dc6520-1">
          <mxGeometry x="36.39999999999998" y="361.4" width="22.2" height="22.2" as="geometry" />
        </mxCell>
        <mxCell id="zGA6LBWknvbC6V1FzWVg-28" value="" style="dashed=0;outlineConnect=0;html=1;align=center;labelPosition=center;verticalLabelPosition=bottom;verticalAlign=top;shape=mxgraph.weblogos.instagram;fillColor=#6FC0E4;gradientColor=#1E305B;movable=1;resizable=1;rotatable=1;deletable=1;editable=1;locked=0;connectable=1;aspect=fixed;" vertex="1" parent="7026571954dc6520-1">
          <mxGeometry x="493.95" y="369.9" width="30.1" height="30.1" as="geometry" />
        </mxCell>
        <mxCell id="zGA6LBWknvbC6V1FzWVg-29" value="" style="shape=image;html=1;verticalAlign=top;verticalLabelPosition=bottom;labelBackgroundColor=#ffffff;imageAspect=0;aspect=fixed;image=https://cdn3.iconfinder.com/data/icons/2018-social-media-logotypes/1000/2018_social_media_popular_app_logo_twitter-128.png" vertex="1" parent="7026571954dc6520-1">
          <mxGeometry x="36.75" y="441.75" width="21.5" height="21.5" as="geometry" />
        </mxCell>
        <mxCell id="zGA6LBWknvbC6V1FzWVg-31" value="" style="dashed=0;outlineConnect=0;html=1;align=center;labelPosition=center;verticalLabelPosition=bottom;verticalAlign=top;shape=mxgraph.webicons.linkedin;fillColor=#0095DB;gradientColor=#006391;aspect=fixed;" vertex="1" parent="7026571954dc6520-1">
          <mxGeometry x="307.95000000000005" y="370.14" width="32.1" height="29.72" as="geometry" />
        </mxCell>
        <mxCell id="zGA6LBWknvbC6V1FzWVg-33" value="" style="dashed=0;outlineConnect=0;html=1;align=center;labelPosition=center;verticalLabelPosition=bottom;verticalAlign=top;shape=mxgraph.webicons.reddit;fillColor=#F3F8FC;gradientColor=#B4D2F0;aspect=fixed;" vertex="1" parent="7026571954dc6520-1">
          <mxGeometry x="36.19999999999999" y="521.3" width="22.4" height="22.4" as="geometry" />
        </mxCell>
        <mxCell id="zGA6LBWknvbC6V1FzWVg-34" value="" style="dashed=0;outlineConnect=0;html=1;align=center;labelPosition=center;verticalLabelPosition=bottom;verticalAlign=top;shape=mxgraph.webicons.reddit;fillColor=#F3F8FC;gradientColor=#B4D2F0;aspect=fixed;" vertex="1" parent="7026571954dc6520-1">
          <mxGeometry x="395.1" y="316.1" width="37.8" height="37.8" as="geometry" />
        </mxCell>
        <mxCell id="zGA6LBWknvbC6V1FzWVg-35" value="" style="dashed=0;outlineConnect=0;html=1;align=center;labelPosition=center;verticalLabelPosition=bottom;verticalAlign=top;shape=mxgraph.webicons.reddit;fillColor=#F3F8FC;gradientColor=#B4D2F0;aspect=fixed;" vertex="1" parent="7026571954dc6520-1">
          <mxGeometry x="395.1" y="416.1" width="37.8" height="37.8" as="geometry" />
        </mxCell>
        <mxCell id="zGA6LBWknvbC6V1FzWVg-37" value="" style="shape=image;html=1;verticalAlign=top;verticalLabelPosition=bottom;labelBackgroundColor=#ffffff;imageAspect=0;aspect=fixed;image=https://cdn2.iconfinder.com/data/icons/social-media-2285/512/1_Facebook_colored_svg_copy-128.png" vertex="1" parent="7026571954dc6520-1">
          <mxGeometry x="33.39999999999998" y="598.5" width="28" height="28" as="geometry" />
        </mxCell>
        <mxCell id="zGA6LBWknvbC6V1FzWVg-38" value="" style="shape=image;html=1;verticalAlign=top;verticalLabelPosition=bottom;labelBackgroundColor=#ffffff;imageAspect=0;aspect=fixed;image=https://cdn2.iconfinder.com/data/icons/social-media-2285/512/1_Facebook_colored_svg_copy-128.png" vertex="1" parent="7026571954dc6520-1">
          <mxGeometry x="593" y="518.5" width="28" height="28" as="geometry" />
        </mxCell>
        <mxCell id="zGA6LBWknvbC6V1FzWVg-39" value="" style="verticalLabelPosition=bottom;html=1;verticalAlign=top;align=center;strokeColor=none;fillColor=#00BEF2;shape=mxgraph.azure.azure_website;pointerEvents=1;aspect=fixed;" vertex="1" parent="7026571954dc6520-1">
          <mxGeometry x="33.65" y="668.75" width="27.5" height="27.5" as="geometry" />
        </mxCell>
        <mxCell id="zGA6LBWknvbC6V1FzWVg-40" value="" style="verticalLabelPosition=bottom;html=1;verticalAlign=top;align=center;strokeColor=none;fillColor=#00BEF2;shape=mxgraph.azure.azure_website;pointerEvents=1;aspect=fixed;" vertex="1" parent="7026571954dc6520-1">
          <mxGeometry x="400.25" y="518.75" width="27.5" height="27.5" as="geometry" />
        </mxCell>
        <mxCell id="zGA6LBWknvbC6V1FzWVg-41" value="" style="verticalLabelPosition=bottom;html=1;verticalAlign=top;align=center;strokeColor=none;fillColor=#00BEF2;shape=mxgraph.azure.azure_website;pointerEvents=1;aspect=fixed;" vertex="1" parent="7026571954dc6520-1">
          <mxGeometry x="688.25" y="466.25" width="27.5" height="27.5" as="geometry" />
        </mxCell>
        <mxCell id="zGA6LBWknvbC6V1FzWVg-42" value="" style="shape=image;html=1;verticalAlign=top;verticalLabelPosition=bottom;labelBackgroundColor=#ffffff;imageAspect=0;aspect=fixed;image=https://cdn3.iconfinder.com/data/icons/2018-social-media-logotypes/1000/2018_social_media_popular_app_logo_twitter-128.png" vertex="1" parent="7026571954dc6520-1">
          <mxGeometry x="586.99" y="317.99" width="34.02" height="34.02" as="geometry" />
        </mxCell>
        <mxCell id="zGA6LBWknvbC6V1FzWVg-43" value="" style="shape=image;html=1;verticalAlign=top;verticalLabelPosition=bottom;labelBackgroundColor=#ffffff;imageAspect=0;aspect=fixed;image=https://cdn3.iconfinder.com/data/icons/2018-social-media-logotypes/1000/2018_social_media_popular_app_logo_twitter-128.png" vertex="1" parent="7026571954dc6520-1">
          <mxGeometry x="491.99" y="557.99" width="34.02" height="34.02" as="geometry" />
        </mxCell>
      </root>
    </mxGraphModel>
  </diagram>
</mxfile>
